<svg xmlns="http://www.w3.org/2000/svg" viewBox="0 0 760 592" width="760" height="592" role="img" aria-labelledby="title desc"><title id="title">单个注意力头的维度变化</title><desc id="desc">每个 query 对 key 位置分配权重，再对 value 求加权和。padding mask 与因果 mask 约束不同的位置。</desc><rect width="760" height="592" rx="16" fill="#f4f6fa"/><g font-family="Microsoft YaHei, Noto Sans SC, sans-serif"><text x="32" y="48" font-size="27" font-weight="700" fill="#152339">单个注意力头的维度变化</text><text x="32" y="79" font-size="17" fill="#54657d">张坤 · 技术图解 / 概念示意</text><rect x="32" y="108" width="696" height="82" rx="12" fill="#ffffff" stroke="#ccd4e2"/><text x="56" y="139" fill="#152339" font-size="23" font-weight="700">1. Q 与 K</text><text x="56" y="170" fill="#384b68" font-size="20">[B,Tq,d]；[B,Tk,d]</text><path d="M380 192v22m-6-6 6 6 6-6" fill="none" stroke="#b45309" stroke-width="3"/><rect x="32" y="218" width="696" height="82" rx="12" fill="#ffffff" stroke="#ccd4e2"/><text x="56" y="249" fill="#152339" font-size="23" font-weight="700">2. QKᵀ / √d</text><text x="56" y="280" fill="#384b68" font-size="20">[B,Tq,Tk]</text><path d="M380 302v22m-6-6 6 6 6-6" fill="none" stroke="#b45309" stroke-width="3"/><rect x="32" y="328" width="696" height="82" rx="12" fill="#ffffff" stroke="#ccd4e2"/><text x="56" y="359" fill="#152339" font-size="23" font-weight="700">3. mask + softmax</text><text x="56" y="390" fill="#384b68" font-size="20">沿 key 维归一化</text><path d="M380 412v22m-6-6 6 6 6-6" fill="none" stroke="#b45309" stroke-width="3"/><rect x="32" y="438" width="696" height="82" rx="12" fill="#ffffff" stroke="#ccd4e2"/><text x="56" y="469" fill="#152339" font-size="23" font-weight="700">4. 权重乘 V</text><text x="56" y="500" fill="#384b68" font-size="20">[B,Tq,dv]</text><text x="32" y="571" font-size="16" fill="#54657d">原始图源：scripts/blog/figure-specs.mjs · 可点击查看原尺寸</text></g></svg>
